<?xml version="1.0" encoding="utf-8"?>
<!-- Generator: Adobe Illustrator 21.0.2, SVG Export Plug-In . SVG Version: 6.00 Build 0)  -->
<svg version="1.1" id="Layer_1" xmlns="http://www.w3.org/2000/svg" xmlns:xlink="http://www.w3.org/1999/xlink" x="0px" y="0px"
	 viewBox="0 0 64 64" style="enable-background:new 0 0 64 64;" xml:space="preserve">
<style type="text/css">
	.st0{fill:#1D2433;}
</style>
<path class="st0" d="M32,0C14.3,0,0,14.3,0,32s14.3,32,32,32s32-14.3,32-32S49.7,0,32,0z M40,33.2h-5.2c0,8.4,0,18.6,0,18.6h-7.7
	c0,0,0-10.2,0-18.6h-3.6v-6.6h3.6v-4.3c0-3.1,1.4-7.7,7.7-7.7h5.7v6.3c0,0-3.5,0-4.1,0s-1.7,0.4-1.7,1.8v3.9h5.9L40,33.2z"/>
</svg>
