<?xml version="1.0" encoding="utf-8"?>
<!-- Generator: Adobe Illustrator 21.0.2, SVG Export Plug-In . SVG Version: 6.00 Build 0)  -->
<svg version="1.1" id="Layer_1" xmlns="http://www.w3.org/2000/svg" xmlns:xlink="http://www.w3.org/1999/xlink" x="0px" y="0px"
	 viewBox="0 0 64 64" style="enable-background:new 0 0 64 64;" xml:space="preserve">
<style type="text/css">
	.st0{fill:#1D2433;}
</style>
<g>
	<path class="st0" d="M32,38.5c3.5,0,6.5-2.8,6.5-6.5c0-1.4-0.5-2.7-1.2-3.7c-1.2-1.7-3.1-2.7-5.2-2.7c-2.2,0-4,1-5.2,2.7
		c-0.9,1-1.4,2.3-1.4,3.7C25.5,35.5,28.5,38.5,32,38.5z"/>
	<polygon class="st0" points="46.1,24.1 46.1,18.8 46.1,17.9 45.2,17.9 39.9,17.9 39.9,24.1 	"/>
	<path class="st0" d="M32,0C14.3,0,0,14.3,0,32s14.3,32,32,32s32-14.3,32-32S49.7,0,32,0z M50.2,28.3v15c0,3.9-3.1,7.1-7.1,7.1H20.8
		c-3.9,0-7.1-3.1-7.1-7.1v-15v-7.5c0-3.9,3.1-7.1,7.1-7.1h22.3c3.9,0,7.1,3.1,7.1,7.1V28.3z"/>
	<path class="st0" d="M41.9,32c0,5.5-4.5,9.9-9.9,9.9s-9.9-4.5-9.9-9.9c0-1.3,0.3-2.6,0.8-3.7h-5.4v15c0,1.9,1.5,3.5,3.5,3.5h22.3
		c1.9,0,3.5-1.5,3.5-3.5v-15h-5.4C41.7,29.4,41.9,30.7,41.9,32z"/>
</g>
</svg>
