<?xml version="1.0" encoding="utf-8"?>
<!-- Generator: Adobe Illustrator 21.0.2, SVG Export Plug-In . SVG Version: 6.00 Build 0)  -->
<svg version="1.1" id="Glyph" xmlns="http://www.w3.org/2000/svg" xmlns:xlink="http://www.w3.org/1999/xlink" x="0px" y="0px"
	 viewBox="0 0 32 32" style="enable-background:new 0 0 32 32;" xml:space="preserve">
<style type="text/css">
	.st0{fill:#2F6FED;}
</style>
<path id="XMLID_223_" d="M64.1,26L59,20.9c1-1.6,1.7-3.5,1.7-5.5c0-5.5-4.5-10-10-10s-10,4.5-10,10s4.5,10,10,10
	c2,0,3.9-0.6,5.5-1.7l5.1,5.1c0.8,0.8,2,0.8,2.8,0C64.9,28.1,64.9,26.8,64.1,26z M43.7,15.4c0-3.9,3.1-7,7-7s7,3.1,7,7s-3.1,7-7,7
	S43.7,19.3,43.7,15.4z"/>
<path class="st0" d="M28,26.5l-6.2-6.7c1.5-1.9,2.2-4.1,2.2-6.5c0-5.9-4.8-10.6-10.6-10.6S2.8,7.4,2.8,13.2s4.8,10.6,10.6,10.6
	c1.9,0,3.8-0.5,5.4-1.5l6.2,6.8c0.7,0.8,2,0.9,2.8,0.1C28.7,28.6,28.7,27.3,28,26.5z M13.4,21.2c-4.4,0-8.1-3.6-8.1-8.1
	S9,5.1,13.4,5.1c4.4,0,8.1,3.6,8.1,8.1S17.8,21.2,13.4,21.2z"/>
</svg>
