<?xml version="1.0" encoding="utf-8"?>
<!-- Generator: Adobe Illustrator 21.0.2, SVG Export Plug-In . SVG Version: 6.00 Build 0)  -->
<svg version="1.1" id="loss" xmlns="http://www.w3.org/2000/svg" xmlns:xlink="http://www.w3.org/1999/xlink" x="0px" y="0px"
	 viewBox="0 0 24 24" style="enable-background:new 0 0 24 24;" xml:space="preserve">
<style type="text/css">
	.st0{fill:#2F6FED;}
</style>
<title></title>
<path class="st0" d="M23.4,4.1C23.1,4,23.4,4,18,4c-0.6,0-1,0.4-1,1s0.4,1,1,1h2.6L13,13.6l-3.3-3.3c0,0,0,0,0,0
	c-0.4-0.4-1-0.4-1.4,0l-8,8c0,0,0,0,0,0c-0.4,0.4-0.4,1,0,1.4s1,0.4,1.4,0L9,12.4l3.3,3.3c0,0,0,0,0,0c0.4,0.4,1,0.4,1.4,0L22,7.4
	V10c0,0.6,0.4,1,1,1s1-0.4,1-1C24,4.8,24.2,4.4,23.4,4.1z"/>
</svg>
