<?xml version="1.0" encoding="utf-8"?>
<!-- Generator: Adobe Illustrator 21.0.2, SVG Export Plug-In . SVG Version: 6.00 Build 0)  -->
<svg version="1.1" id="Layer_1" xmlns="http://www.w3.org/2000/svg" xmlns:xlink="http://www.w3.org/1999/xlink" x="0px" y="0px"
	 viewBox="0 0 64 64" style="enable-background:new 0 0 64 64;" xml:space="preserve">
<style type="text/css">
	.st0{fill:#2F6FED;}
</style>
<g id="Fill-131">
	<path class="st0" d="M31.9,54.9C19.3,54.9,9,44.6,9,32S19.3,9.1,31.9,9.1S54.8,19.4,54.8,32C54.9,44.6,44.6,54.9,31.9,54.9
		L31.9,54.9z M31.9,11.5c-11.3,0-20.4,9.2-20.4,20.4s9.2,20.4,20.4,20.4s20.4-9.2,20.4-20.4S43.2,11.5,31.9,11.5L31.9,11.5z"/>
	<path class="st0" d="M31.9,55.4C19,55.4,8.5,44.9,8.5,32C8.5,19.1,19,8.6,31.9,8.6S55.3,19.1,55.3,32c0,6.2-2.3,12-6.7,16.5
		C44.1,52.9,38.2,55.4,31.9,55.4z M31.9,9.6C19.5,9.6,9.5,19.6,9.5,32s10,22.4,22.4,22.4c6,0,11.7-2.4,16-6.6
		c4.2-4.2,6.5-9.8,6.4-15.8C54.3,19.6,44.3,9.6,31.9,9.6z M31.9,52.8C20.4,52.8,11,43.4,11,31.9C11,20.4,20.4,11,31.9,11
		c11.5,0,20.9,9.4,20.9,20.9C52.8,43.4,43.4,52.8,31.9,52.8z M31.9,12C20.9,12,12,20.9,12,31.9c0,11,8.9,19.9,19.9,19.9
		c11,0,19.9-8.9,19.9-19.9C51.8,20.9,42.9,12,31.9,12z"/>
</g>
<path class="st0" d="M32.8,34.3V20.2c0-0.8-0.7-1.5-1.5-1.5h0c-0.8,0-1.5,0.7-1.5,1.5v15.4h0l0,0l7,7c0.6,0.6,1.5,0.6,2.1,0l0,0
	c0.6-0.6,0.6-1.5,0-2.1L32.8,34.3z"/>
</svg>
